# xmcd
#
# Track frame offsets:
#	150
#	18177
#	44402
#	68414
#	91813
#	114602
#	147781
#	165366
#	193553
#
# Disc length: 2913
#
# Revision: 1
# Processed by: cddbd v1.5.1PL0 Copyright (c) Steve Scherf et al.
# Submitted via: Click'N Design 3D 4.8
# Normalized: r0:TDELIM( - ),TSWAP
#
DISCID=670b5f09
DTITLE=My Mix - Kimmie - Slow Jams - Mixed by Kimmie
DYEAR=1980
DGENRE=R and B
TTITLE0=Boyz to Men - Can You Stand the Rain
TTITLE1=Boyz to Men - End of the Road
TTITLE2=Jodeci - Forever My Lady
TTITLE3=Jodeci - Stay
TTITLE4=Rick James - Ebony Eyes
TTITLE5=Rick James - Fire and Desire
TTITLE6=R.James/Temptations - Standing on the Top
TTITLE7=The O Jays - Stairway to Heaven
TTITLE8=The O Jays - You Got Your Hooks in Me
EXTD=
EXTT0=
EXTT1=
EXTT2=
EXTT3=
EXTT4=
EXTT5=
EXTT6=
EXTT7=
EXTT8=
PLAYORDER=
